<?xml version="1.0" encoding="UTF-8"?>
<svg version="1.1" viewBox="0 0 1600 1258" width="1280" height="1280" xmlns="http://www.w3.org/2000/svg">
<path transform="translate(787,19)" d="m0 0 22 1 28 4 16 5 12 5 12 7 9 8 7 10 5 11 3 16v25l-3 21 5 5 8 7 18 13 22 12 19 8 21 5 43 7 21 5 14 6 11 8 9 13 4 10 1 4v20l-7 30-6 34 35 2 25 3 23 5 22 8 19 10 16 10 21 11 13 4 6 1h17l14-5 11-8 8-11 5-8 6 4 9 10 10 15 9 16 9 21 7 19 6 23 4 22 1 10v14l-3 17-6 24-2 13v19l5 12 12 23 14 24 11 18 9 13 10 13 9 10 7 7 3 6 14 8 11 8 10 8 11 11 12 16 8 16 3 11v25l3 5v15l-4 16-10 24-6 15-1 5v15l3 10 8 11 8 7 13 8 20 9 1 2h-45l-25-5-20-7-19-10-20-14-13-6-10-2-13 1-23 5-17 6-17 9-10 6-17 7-7 2h-14l-5-4-3-17-4-20-5-14-5-8-2-1h-7l-21 6-21 8-28 13-28 15-27 16-15 9-27 14-27 13-24 9-22 6-12 2h-19l-12-3-10-6-8-9-4-8-4-14v-19l3-12 5-12 4-11 6-19 5-25 2-16v-24l-5-21-4-16-10 3-19 8-35 16-34 17-22 12-26 15-16 9-17 8-26 10-29 9-37 9-44 8-42 5-22 2-44 1-19 2-23 5-27 9-26 11-24 11-19 10-27 14-16 9h-4l-4-17v-19l2-52 4-60 2-25 5-61 7-96 1-7 1-19v-44l-2-34-4-36-6-37-8-38-12-45-11-35-15-46-12-29-13-29-12-25-19-37-10-19-14-25-13-22-15-26-7-12v-2l15-4 33-11 30-8 35-8 39-7 33-5 10-1h11l17 2 24 5 22 6 36 12 36 13 29 9 21 4h20l24-5 26-9 21-9 25-12 19-9 11-5 15-4 22-3z" fill="#001DB3"/>
<path transform="translate(787,19)" d="m0 0 22 1 28 4 16 5 12 5 12 7 9 8 7 10 5 11 3 16v25l-3 21 5 5 8 7 18 13 22 12 19 8 21 5 43 7 21 5 14 6 11 8 9 13 4 10 1 4v20l-7 30-6 34 35 2 25 3 23 5 22 8 19 10 16 10 21 11 13 4 6 1h17l14-5 11-8 8-11 5-8 6 4 9 10 10 15 9 16 9 21 7 19 6 23 4 22 1 10v14l-3 17-6 24-2 13v19l5 12 12 23 14 24 11 18 9 13 10 13 9 10 7 7 3 7-9-2-12-2h-24l-31 6-24 3h-37l-20-3-26-5-15-2-14-1-7-15-24-48-6-5-12-5-14-3h-24l-22 4-20 6-11 4h-3l-2-34-2-16v-6l5 5 5 4 12 3h53l12 2-6-12-13-13-9-12-10-17-2-3 1-4h2l-4-8-8-11v-2l-6-2-6-7-7-13v-4h4l-2-7-4-7-3-3-5-10-3-10-4-8-9-10-11-8-12-6-14-4-13-2-38-1-5 1-5-5 1 2v7l-4 13-5 10-8 9-11 8-13 7-17 6-22 4-10 1h-31l-12-3-9-7-7-7-10-14-8-17-1-3v-7l5-6 2-1h7l8 4 16 12 10 6 12 3h19l13-4 5-4 2-3v-9l-7-6-12-3-22-1-25-3-17-5-17-10v-2l-4-2-8-10-4-10v-16l5-12 9-10 10-7 9-4 11-4 22-3 12-1 8-4 11 1 13 5 6 4-7-15-4-11-7-6-11-4-9-1-21 1-25 6-24 8-20 9-19 11-33 22-22 13-17 9-24 9-5 1h-15l-20-3-21-5-30-10-29-12-41-18-16-5-16-3h-37l-25 4-23 6-20 7-20 9-19 10-9 6-3-1-14-43-12-29-13-29-12-25-19-37-10-19-14-25-13-22-15-26-7-12v-2l15-4 33-11 30-8 35-8 39-7 33-5 10-1h11l17 2 24 5 22 6 36 12 36 13 29 9 21 4h20l24-5 26-9 21-9 25-12 19-9 11-5 15-4 22-3z" fill="#048B30"/>
<path transform="translate(867,263)" d="m0 0h9l12 2 9 4 7 6 4 11 7 14-1 2-8-5-11-4-11-1-8 4-28 3-12 3-12 5-11 7-7 7-6 12-1 3v16l4 10 8 10 3 2v2l5 2 12 7 17 5 25 3 22 1 12 3 8 7v9l-5 6-8 4-8 2h-19l-12-3-10-6-16-12-8-4h-7l-5 4-1 2v7l5 12 6 11 10 13 7 7 6 4 12 3h31l21-3 13-3 15-5 15-8 12-10 7-10 5-13 1-5v-9l3 1 2 3 9-1 34 1 17 3 15 5 13 8 10 9 7 9 4 10 3 9 3 6-1 2-16-7-27-9-28-6-3 1 7 9 7 8 8 8 9 14 9 16 18 33 8 16 3 8v5l-3 3-6 3h-2l-8-28-7-16-8-13-9-10-10-7-16-7-16-6-17-4-9-1h-21l-19 3-22 6-20 8-16 8-14 8-20 14-14 11-13 12-14 14-2 3h-2v2l-8 7-13 13h-2v2l-8 7-15 11-16 7-16 4-8 1h-28l-22-3-31-7-27-7-36-4h-65l-35 4-28 5-30 8-25 9-25 12-5 2 1-22v-44l-2-34-4-36-6-37-8-38-12-45-11-35v-2l20-12 25-12 25-9 23-6 25-4h37l16 3 16 5 36 16 34 14 30 10 26 6 15 2h15l13-4 16-6 26-14 21-13 30-20 20-11 25-10 24-7 14-3z" fill="#FCFBFB"/>
<path transform="translate(999,184)" d="m0 0 17 2 28 5 16 5 14 7 6 5 9 13 4 10 1 4v20l-7 30-6 34 35 2 25 3 23 5 22 8 19 10 16 10 21 11 13 4 6 1h17l14-5 11-8 8-11 5-8 6 4 9 10 10 15 9 16 9 21 7 19 6 23 4 22 1 10v14l-3 17-6 24-2 13v19l5 12 12 23 14 24 11 18 9 13 10 13 9 10 7 7 3 7-9-2-12-2h-24l-31 6-24 3h-37l-20-3-26-5-15-2-14-1-7-15-24-48-6-5-12-5-14-3h-24l-22 4-20 6-11 4h-3l-2-34-2-16v-6l5 5 5 4 12 3h53l12 2-6-12-13-13-9-12-10-17-2-3 1-4h2l-4-8-8-11v-2l-6-2-6-7-7-13v-4h4l-2-7-4-7-3-3-5-10-3-10-4-8-9-10-11-8-12-6-14-4-13-2-38-1-5 1-5-5 1 2v7l-4 13-5 10-8 9-11 8-13 7-17 6-22 4-10 1h-31l-12-3-9-7-7-7-10-14-8-17-1-3v-7l5-6 2-1h7l8 4 16 12 10 6 12 3h19l13-4 5-4 2-3v-9l-7-6-12-3-22-1-25-3-17-5-17-10v-2l-4-2-8-10-4-10v-16l5-12 9-10 10-7 9-4 11-4 22-3 12-1 8-4 11 1 13 5 6 4-2-6v-7l-2-5-1-10-3-6 5-10 3-10 2-1-1-7 7-12 9-7 9-3 10-5 13-9 10-6 18-12z" fill="#048B30"/>
<path transform="translate(534,592)" d="m0 0h13l24 1 6 2 23 1 7 2 10 1 9 3 14 4 13 3 10 2 16 3 19 1 35-1 11-2 6-2 4-2h5l4 4 6 13-2 16-4 12-7 13-6 9-5 10-11 14-7 15-8 16-9 19-6 16-9 21-3 13v12l5 9 9 11 8 12 9 12 10 4v3l-12 5h-4l-1 3-10 2v2l-36 8-36 6-46 5-11 1-44 1-19 2-23 5-27 9-26 11-24 11-19 10-27 14-11 6-7-2-1-1v-41l3-19 2-1-1-3h2l-1-5 8-18 8-16 8-14 10-15 7-11 9-11 11-17 5-7 6-11 6-9 9-15 10-18 9-15 9-19 5-13 8-27 1-5v-39l-1-9 3-3 20-3 12-1 7-2z" fill="#0026FA"/>
<path transform="translate(787,19)" d="m0 0 22 1 28 4 16 5 12 5 12 7 9 8 7 10 5 11 3 16v25l-3 21 5 5 8 7 18 13 22 12 19 8 21 5 8 2v1l-10 2-16 11-12 7-8 6-8 5-9 4-6 2-8 6-6 11 1 7-3 1-1 6-5 13v3l2 4 1 10 2 5v7h-2l-4-9-4-11-7-6-11-4-9-1-21 1-25 6-24 8-20 9-19 11-33 22-22 13-17 9-24 9-7 1-6-1 1-5-6-5-7-11-3-6-12-21-6-7-3-7-4-5-3-7-5-6-3-6-3-9-3-8-1-8-3-9-2-7v-48l4-16 5-12 4-8 3-11 5-10 4-12 4-5-1-11-4-5-6-4-9-2h-9l-4-3 1-1 18-2 18-4 26-9 21-9 25-12 19-9 11-5 15-4 22-3z" fill="#048B30"/>
<path transform="translate(1178,614)" d="m0 0 10 2 12 6 6 7 19 39 6 12 3 9h14l32 5 20 4 9 1h37l30-4 25-5h24l15 3 10 3 16 10 14 11 12 12 12 16 8 16 3 11v25l3 5v15l-4 16-10 24-6 15-1 5v15l3 10 8 11 8 7 13 8 20 9 1 2h-45l-25-5-20-7-19-10-20-14-13-6-10-2-13 1-23 5-17 6-17 9-10 6-17 7-7 2h-14l-5-4-3-17-4-20-5-14-5-8-2-1h-7l-21 6-21 8-11 5-8 1-18 8-10 5-10 6-24 12-1-3 7-8 14-17 7-8 9-12 10-19 7-24 1-6v-20l-6-23-9-55-3-24-5-20-6-22-10-24-1-11 2-5 2-1 32-1z" fill="#001DB3"/>
<path transform="translate(867,263)" d="m0 0h9l12 2 9 4 7 6 4 11 7 14-1 2-8-5-11-4-11-1-8 4-28 3-12 3-12 5-11 7-7 7-6 12-1 3v16l4 10 8 10 3 2v2l5 2 12 7 17 5 25 3 22 1 12 3 8 7v9l-5 6-8 4-8 2h-19l-12-3-10-6-16-12-8-4h-7l-5 4-1 2v7l5 12 6 11 10 13 7 7 6 4 12 3h31l21-3 13-3 15-5 15-8 12-10 7-10 5-13 1-5v-9l3 1 2 3 9-1 34 1 17 3 15 5 13 8 10 9 7 9 4 10 3 9 3 6-1 2-16-7-27-9-28-6-3 1 7 9 7 8 8 8 9 14 9 16 18 33 8 16 3 8v5l-3 3-6 3h-2l-8-28-7-16-8-13-9-10-10-7-16-7-16-6-17-4-9-1h-21l-19 3-22 6-20 8-16 8-14 8-20 14-14 11-13 12-14 14-2 3h-2v2l-8 7-13 13h-2v2l-8 7-4 2h-3-2v2l-16 8-14 4-6 1h-18l-8-4-7-9-6-12-9-30-6-19-5-17-6-16-7-19-10-19-11-18-6-9-3-6v-2h-2l-7-12-5-8-1-4-3-1-6-9-4-7-5-7v-2h-2l-4-7v-2h-2l-9-14-3-7-7-8 1-4 9 1 12 2 18 6 26 6 15 2h15l13-4 16-6 26-14 21-13 30-20 20-11 25-10 24-7 14-3z" fill="#AA9F98"/>
<path transform="translate(972,473)" d="m0 0h9l18 3 7 1 9 3 20 9 12 7 8 6 8 11 9 16 6 18 4 16 3 17 5 48v38l2 29 5 35 3 14v6l-7-1-5-4-16-6-7-2h-25l-20 3-16 4-13 5-10 7-2 2-2 15-3 10-5 4-5-2-3-8v-3h-2l-3-11-7-2-7 3-16 5h-5l-6-7v-12l-4-16-1-17-3-14-4-10-12-13-4-9-3-9v-2h-1l1-9 3-1-1-3-2-1 1-16 5-12 4-8 6-11 8-24 2-13v-24l-7-21-3-15v-6l5-5 24-9 4-2 11-2 12-2z" fill="#0026FA"/>
<path transform="translate(151)" d="m0 0h20v2l5 2 7 7 4 9v13l-4 10-2 2v3l3 2 1 6-1 9 1 2 5 2v1h-5l2 10 6 36 7 40 7 39 10 56 8 49 10 55 13 77 8 45 11 61 14 79 11 61 13 73 12 66 11 65 9 49 5 18 1 2 1 11 4 4-3 3 2 19 12 70 9 49 4 18 11 20 6 14v2h-2l-11-21v8l11 65 6 34v11h-34l-10-56-8-46-10-59-3-8-8-11-6-12-3-9-2-11-2-20-5 12-8 13-9 10-13 12-5 9-2 6-1 7v18l3 14 6 16 9 17 12 16 6 10 4 11v9l-3 6-3-1 1-5v-9l-4-11-9-14-8-11-9-16-7-18-3-15v-18l3-12 7-11 8-8 8-6 9-12 6-13 4-12 3-15 1-8v-29l-17-100-15-84-14-80-10-58-16-91-14-79-12-70-12-66-12-68-3-13-10-9-9-13-7-17-5-21-2-20-1-25 1-7-2 4-4 16-6 16-9 17-11 13-6 10-4 9-3 16-1 10-1 2h-3v-9l4-18 4-10 7-11 10-12 8-14 7-18 4-16 5-37 2-27-1-10v-9l-3-6-2-5 1-2h2l-1-5-8-9-3-5-1-4v-14l4-8 9-8zm26 63 4 1zm-24 29-1 4-2 38 2 4 3-15-1 11-2 17v23l1 16 4 22 7 21 7 12 9 10 3 1-1-11-11-66-5-26-4-24-3-10h-3l1-8-1-13-2-6zm157 915v5l3-2-1-3zm4 8-2 5v29l3 14 8 18 6 5-3-22-8-45-2-4zm-6 4 1 3z" fill="#8F6A19"/>
<path transform="translate(1128,476)" d="m0 0h37l27 3 23 5 29 9 21 8 23 10 17 9 19 11 20 14 11 9 7 6 1 2 1-7h1l1 13 5 12 12 23 14 24 11 18 9 13 10 13 9 10 7 7 3 7-9-2-12-2h-24l-31 6-24 3h-37l-20-3-26-5-15-2-14-1-7-15-24-48-6-5-12-5-14-3h-24l-22 4-20 6-11 4h-3l-2-34-2-16v-6l5 5 5 4 12 3h53l12 2-6-12-13-13-9-12-10-17-2-3 1-4h2l-4-8-8-11v-2l-6-2-6-7-7-13v-4l4 1 2 3 6-3z" fill="#AA9F97"/>
<path transform="translate(1082,320)" d="m0 0h19l25 2 25 4 19 5 20 8 18 10 15 9 19 10 13 4 6 1h17l14-5 11-8 8-11 5-8 6 4 9 10 10 15 9 16 9 21 7 19 6 23 4 22 1 10v14l-3 17-6 24-4 28-4-5-11-9-13-10-17-11-18-10-19-10-27-11-33-11-24-6-21-3-12-1h-37l-15 3-1 3-3-6 4-2h8l3-1v-2l6-2h12l8-1v-3l-4-2-13-1-2-1h-8l-3-3-1-5h-2l-4-8-1-5v-8l-6-16-6-10-7-14-2-2-4-1-2 1-2-8-2-26v-26z" fill="#02521C"/>
<path transform="translate(707,38)" d="m0 0 3 1-5 4h-2l-2 4-4 2-2 4-4 5-2 8 3 9 5 9 4 4 7 8 5 12 6 8 12 15 8 14 5 10 3 7 9 31 3 7 5 20 8 16 6 9 9 8 8 10 4 9v2l10 2v2l-23 10-19 11-33 22-22 13-17 9-24 9-7 1-6-1 1-5-6-5-7-11-3-6-12-21-6-7-3-7-4-5-3-7-5-6-3-6-3-9-3-8-1-8-3-9-2-7v-48l4-16 5-12 4-8 3-11 5-10 4-12 4-5-1-11-4-5-6-4-9-2h-9l-4-3 1-1 18-2 18-4 26-9 21-9 25-12z" fill="#033D14"/>
<path transform="translate(331,334)" d="m0 0 2 1-2 3h11l5 2 5 4 14 7 10 6 4 3 7 4 12 8 9 10 7 6v2l4 2 12 14v2l4 2 8 8v2l3 1 7 10 8 12 6 8 14 28 9 17 6 21 5 15 4 16 2 15 1 12v7l-4 4-10 4-12 3-4 2v1l-28 5-30 8-25 9-25 12-5 2 1-22v-44l-2-34-4-36-6-37-8-38-12-45-11-35v-2z" fill="#ABA098"/>
<path transform="translate(1176,615)" d="m0 0 6 2 14 7 7 8 28 56 6 8 6 13 13 30 12 29 14 36 9 27 5 19 2 10v8l-4 3-14-6-11 1-3 3-10-2h-7l-21 6-21 8-11 5-8 1-18 8-10 5-10 6-24 12-1-3 7-8 14-17 7-8 9-12 10-19 7-24 1-6v-20l-6-23-9-55-3-24-5-20-6-22-10-24-1-11 2-5 2-1z" fill="#0026FA"/>
<path transform="translate(513,591)" d="m0 0h22l-1 2-15 2-2 1-21 2-13 2v7l1 6v37l-7 25-5 15-9 20-10 18-10 17-8 14-7 11-6 9-5 9-14 20-7 9-21 33-11 20-5 12-4 9v5l-2 6-3 17v41l6 3-4 3h-4l-4-17v-19l2-52 4-60 2-25 5-61 7-96 1-4 23-12 26-10 24-7 27-6 28-4z" fill="#001DB3"/>
<path transform="translate(1408,692)" d="m0 0h19l15 4 12 5 15 10 21 21v2l4 2 1 3 3 1 7 11 4 7 2 14v9l-3 5-5 4-12 5-12 6-9 7-7 8-6 12-2 12 2 15 5 13 7 9 12 12 11 8 9 12 5 5 5 4 5 5 11 8v4l-6 2h-14l-11-1h-8l-17-5-15-6-2-1v-3l-6-2-11-7-12-9-11-7-6-3-5-5-3-14-5-15-3-19-3-24-5-25-2-21-3-11-4-6-7-10-3-5-5-5-8-11-4-10-2-4 1-3 11-3 23-4 13-3z" fill="#0026FA"/>
<path transform="translate(884,291)" d="m0 0 11 1 13 5 9 6 8 12 7 14 10 14 1 3 4 2 10 13 12 16 8 10 7 9-2 1 1 2v7l-4 13-5 10-8 9-11 8-13 7-17 6-22 4-10 1h-31l-12-3-9-7-7-7-10-14-8-17-1-3v-7l5-6 2-1h7l8 4 16 12 10 6 12 3h19l13-4 5-4 2-3v-9l-7-6-12-3-22-1-25-3-17-5-17-10v-2l-4-2-8-10-4-10v-16l5-12 9-10 10-7 9-4 11-4 22-3 12-1z" fill="#001DB2"/>
<path transform="translate(707,38)" d="m0 0 3 1-5 4h-2l-2 4-4 2-2 4-4 5-2 8 3 9 5 9 4 4 7 8 5 12 6 8 12 15 8 14 5 10 3 7 9 31 3 7 5 20 8 16 6 9 9 8 8 10 4 9v2l10 2v2l-10 4-9-2-5-5-6-9-12-10-7-4-4-7-7-9-9-25-8-18-8-16-13-16-8-5-10-3h-15l-15 4-4 4h-2v2h-2l-2 4-10 6-3 6-6 10-4 13-2 15 3 17 3 15 8 16 11 17 8 11 3 6 1 9 1 10 1 13 3 8v7l-6 6h-6l1-5-6-5-7-11-3-6-12-21-6-7-3-7-4-5-3-7-5-6-3-6-3-9-3-8-1-8-3-9-2-7v-48l4-16 5-12 4-8 3-11 5-10 4-12 4-5-1-11-4-5-6-4-9-2h-9l-4-3 1-1 18-2 18-4 26-9 21-9 25-12z" fill="#02531C"/>
<path transform="translate(1318,348)" d="m0 0 4 1 3 2v2l4 2 6 8 5 5 10 18 9 21 7 19 6 23 4 22 1 10v14l-3 17-6 24-4 28-4-5-11-9-13-10-17-11-18-10-19-10-29-12-1-3-12-5-20-8-3-5h4v-2l5-5 3-9 5-9 8-7 18-11 12-6 12-7 1-2h2v-2h2l2-4 7-6 8-11 2-3h2l4-17 1-19z" fill="#048B30"/>
<path transform="translate(169,69)" d="m0 0h8l3 1 4 21 4 24 9 51 9 53 7 37 7 42 5 28 6 33 4 25 6 34 9 52 4 24 4 20 5 30 4 21 7 42 5 27 4 24 7 37 4 23 3 17 4 21 4 25 5 31 2 7 2 12 3 19 3 16 8 45 3 17 4 24 2 11-8 1h-11l1-2-2-11-4-25-4-20-3-18-7-40-3-20-2-8-6-36-4-21-8-47-16-88-4-26-3-17-9-49-2-15-2-10-8-44-4-21-5-30-7-39-6-35-4-20-5-30-3-14 5 5 9 17 2 1-6-14-6-9-7-12-3-26-10-57-6-34-4-21-3-18-5-27-2-9v-2z" fill="#F2E0B1"/>
<path transform="translate(331,334)" d="m0 0 2 1-2 3h11l5 2 5 4 14 7 10 6 4 3 7 4 12 8 9 10 7 6v2l4 2 12 14v2l4 2 8 8v2l3 1 7 10 8 12 6 8 14 28 9 17 6 21 5 15 4 16 2 15 1 12v7l-4 4-10 4-12 3-4 2v1l-28 5-16 4h-6l3-2 16-6 16-8 2-2v-7l-4-18-5-13-2-13h-2l-1-2-1-10-5-10-3-8-1-8-4-5-3-6-13-23-5-11-5-9-5-6-4-4-4-5-2-1v-2l-4-2-8-7-11-9-13-9-6-4-5-3-6 1-2 5-2-4-12-41-4-12v-2z" fill="#C9C3BF"/>
<path transform="translate(1128,476)" d="m0 0h37l27 3 23 5 3 2-1 2 7 1 5 5v2l4 2v3l3 1 2 4 1 10-1 3 5 14 2 5 2 11v8l-1 4 2 7-3 7-2 9-2 3-2 8-4 11-5 18-2 6-4 2-4 5-3 1v-2l-4-1-6-11-7-3-6-8-12-19-7-12v-3h-2l-6-10-11-15-12-19-6-9-3-2h2l-4-8-8-11v-2l-6-2-6-7-7-13v-4l4 1 2 3 6-3z" fill="#8F8379"/>
<path transform="translate(1082,320)" d="m0 0h19l25 2 25 4 19 5 20 8 18 10 15 9 19 10 13 4 6 1h17l14-5 11-8 6-8 1 2-3 7-5 12-6 11-9 10h-2v2l-8 3-10 3-8 2h-16l-4-1v-3l-15-2-20 7-21 4-5 1-4-2v2l2 1-6 1v-2l-1 1v1h-11l-9-3-1-3-9-4-9-5v-2h-2l-5-5-6-2-3-4-7-3-3-5-5-5-1-5h-2l-7-8-7-3z" fill="#033E14"/>
<path transform="translate(982,397)" d="m0 0 3 1 2 3 9-1 34 1 17 3 15 5 13 8 10 9 7 9 4 10 3 9 3 6-1 2-16-7-27-9-28-6-3 1 7 9 7 8 8 8 9 14 9 16 18 33 8 16 3 8v5l-3 3-6 3h-2l-8-28-7-16-8-13-9-10-10-7-16-7-16-6-17-4-9-1h-21l-19 3-22 6-20 8-16 8-9 5-3-1 11-7h2v-2l7-6 3-4v-8l-6-4-19-3-3-2 21-1 2-1 21-3 13-3 15-5 15-8 12-10 7-10 5-13 1-5z" fill="#FAF9F9"/>
<path transform="translate(571,335)" d="m0 0 9 1 12 2 18 6 2 3-8-1-3-1 3 8 7 8 8 11 9 11 5 6 2 5 4 4 3 5v2h2l9 13 6 11v2h2l11 18 10 17 3 7 4 10 10 19 6 10 6 11 8 13 4 6 3 6 5 4 7 8 3 5 4 3 4 7v2l4 2 15 5 10-4 9-6 10-9 6-5h2v-2l8-7 11-11h2v-2l4-2-2 4-16 16-2 3h-2v2l-8 7-13 13h-2v2l-8 7-4 2h-3-2v2l-16 8-14 4-6 1h-18l-8-4-7-9-6-12-9-30-6-19-5-17-6-16-7-19-10-19-11-18-6-9-3-6v-2h-2l-7-12-5-8-1-4-3-1-6-9-4-7-5-7v-2h-2l-4-7v-2h-2l-9-14-3-7-7-8z" fill="#C9C3BF"/>
<path transform="translate(887,296)" d="m0 0h8l9 4 8 5 5 7 1 9-1 1h-7l-9-3-7-1-6-2-8-2-5-1h-7l-10 3-4 1-1 4-3 3 2 7 2 4 5 2 6 2 8 1 37 1 11 1 15 4 9 4 12 16 7 9 9 12 6 9 1 5-3 17-9 14-5 5-10 5-12 5-2 1h-13l-5-4-5-10-6-5v-6l4-5h2l2-5-1-11-4-4-11-3v-2h-7l-9-4-9-2-6-4-10-7-3-5-6-12-4-6-4-8-6-5-3-8-3-17 1-5h3v-3l7-3 12-2 16-1 6-2z" fill="#0026FB"/>
<path transform="translate(324,966)" d="m0 0h16l7 1-2 2 2 19 12 70 9 49 4 18 11 20 6 14v2h-2l-11-21v8l11 65 6 34v11h-34l-10-56-8-46-10-59 1-4 4 1v2l5 1-1-16-4-21-3-16-2-15-3-17-7-35-1-8 1-2z" fill="#A48129"/>
<path transform="translate(1375,600)" d="m0 0 5 2 4 5 3 3 11 19 12 19 12 17 11 13 10 10 3 7-9-2-12-2h-24l-31 6-24 3h-37l-20-3-9-2-1-2 17 2 7 1 18-1 2-6-1-5-6-19v-10l4-20 5-14 2-7 4-6 9-6 7-1 8 1h16z" fill="#C8C2BE"/>
<path transform="translate(1217,486)" d="m0 0 8 1 10 3-2 1v2l6 2 11 5v2l4 2v3h2l4 12 2 7 3 20 1 28-3 6-1 8-4 11-2 14-3 10-2 17 2 17 2 7 2 9h2l5 10-5 4h-11l-10-2-6-7-1-5h-2l-1-5h-2l-2-2-3-4-16-33-6-7-14-6-14-3h-24l-22 4-20 6-11 4h-3l-2-34-2-16v-6l5 5 5 4 12 3h53l12 2-6-12-13-13-9-12-10-17-2-3v-3l5 1 13 20 10 15 10 14 1 4h2l6 12 14 22 6 8 7 3 6 11 4 2 6-6 4-2 4-16 5-16 2-4 2-7 2-4 2-9 2-6-2-8 1-2v-8l-2-11-3-8-4-11 1-7-2-7-1-3-2-1-2-4-5-5-5-3-4-1z" fill="#958C8B"/>
<path transform="translate(898,135)" d="m0 0 5 2 8 7 18 13 22 12 19 8 21 5 8 2v1l-10 2-16 11-12 7-8 6-8 5-9 4-6 2-8 6-6 11 1 7-3 1-1 6-5 13-4 1-3-8-4-22-2-25v-41l2-32z" fill="#02531C"/>
<path transform="translate(1426,691)" d="m0 0 11 1 13 4 16 10 14 11 12 12 12 16 8 16 3 11v25l3 5v15l-4 16-10 24-6 15-1 5v15l3 10 8 11 8 7 13 8 20 9 1 2h-45l-11-2 2-2 19 1h8l3-3-1-3-10-7-5-5-5-4-7-8-8-10-11-8-14-14-5-9-4-10-2-15 2-12 6-12 9-10 10-7 10-5 12-5 6-5 1-3v-11l-2-12-6-10-5-8-7-6-7-8-15-15-18-11-10-4-13-3z" fill="#011DB3"/>
<path transform="translate(1044,738)" d="m0 0h23l11 4 14 8 9 10 3 6 1 7-2 10-8 10v3l-13 9-7 2-20 11-23 11-20 10-5 2 1-5 5-8h2l1-5 9-13 5-13 2-12 2-20 2-15 2-7v-4z" fill="#0D184C"/>
<path transform="translate(198,278)" d="m0 0 5 5 8 15v7l3 14 4 24 2 8 2 14 2 9 2 13 3 19 8 40 1 8 2 11 12 72 3 16 4 20 3 19 5 29 2 13 7 38 3 15 1 10 1 7 1 4 5 27 3 15 2 15 9 48 2 14 1 5 3 16 2 13 7 38 11 61 2 4h-11l1-2-2-11-4-25-4-20-3-18-7-40-3-20-2-8-6-36-4-21-8-47-16-88-4-26-3-17-9-49-2-15-2-10-8-44-4-21-5-30-7-39-6-35-4-20-5-30z" fill="#DDBD6C"/>
<path transform="translate(169,69)" d="m0 0h8l3 1 4 21 4 24 9 51 9 53 7 37 7 42 5 28 6 33 4 25 6 34 9 52 4 24 4 20 5 30 4 21 7 42 5 27 4 24 7 37 4 23 3 17 4 21 4 25 5 31 2 7 2 12 3 19 3 16 8 45 3 17 4 24 2 11h-5v-7l-7-36-4-24-5-27-4-24-7-40-7-39-3-16-5-30-5-28-5-27-4-24-3-17-5-29-9-50-5-30-3-17-16-88-7-40-4-23-8-49-7-39-8-43-7-40-3-17-3-18-5-29-3-17-4-21v-3l-4 1v9l4 23 2 13 2 8 7 42 7 39 4 23 3 16 2 6 1 8 1 3 1 18 2 6-3-3-10-17-3-26-10-57-6-34-4-21-3-18-5-27-2-9v-2z" fill="#DABA6C"/>
<path transform="translate(177,69)" d="m0 0 8 1 2 10 6 36 7 40 7 39 10 56 8 49 10 55 13 77 8 45 11 61 14 79 11 61 13 73 12 66 11 65 9 49 5 18 1 2 1 11 2 1v2l-9-2-3-11-5-30-4-23-7-38-3-18-3-15-2-13-4-21-7-43-4-20-6-36-7-37-5-31-4-20-7-42-8-44-4-24-4-20-7-43-3-16-8-47-4-23-4-22-4-24-4-21-7-42-4-20-13-76-6-34-5-27-1-12z" fill="#A4812A"/>
<path transform="translate(1134,525)" d="m0 0 5 1 13 20 10 15 10 14 1 4h2l6 12 14 22 6 9-6-2-14-5-10-2h-24l-22 4-20 6-11 4h-3l-2-34-2-16v-6l5 5 5 4 12 3h53l12 2-6-12-13-13-9-12-10-17-2-3z" fill="#FAF9F8"/>
<path transform="translate(992,400)" d="m0 0 38 1 17 3 15 5 13 8 10 9 7 9 4 10 3 9 3 6-1 2-16-7-27-9-28-6-3 1 3 3-1 2-12-11-9-9-7-8-12-13-1-3z" fill="#ABA098"/>
<path transform="translate(1152,516)" d="m0 0h26l5 3 1-2v2l4 2 6 5 2 7-3 6 2 14v4l3 1 4 8 4 9 1 7-1 5v7l-3 5-2 1-2 14-1 2-3-1-11-18-8-13-1-5h-2l-6-10-11-15-12-19-6-9 1-3z" fill="#877A74"/>
<path transform="translate(191,269)" d="m0 0 7 6 1 5 3 12 5 30 4 20 7 41 5 27 4 25 3 16 8 43 4 25 1 2 4 27 8 44 4 25 12 66 11 62 6 36 3 16 5 29 1 2 2 14 7 40 4 24 4 20 4 25 2 14-5 2-3-1v-15l-3-21-2-9-1-5-3-13-2-18-2-9-1-10-3-8-2-16-1-7-2-11-1-5-3-20-4-21-1-10-2-10-3-16-6-34-5-28-6-32-1-10-2-8-2-15-2-9-2-14-2-9-1-2v-6l-2-10-4-18-2-13-1-9-4-20-4-24-2-11-4-19-2-16-4-21-3-17-2-10-1-7-2-9-2-13-3-18-2-9-2-10-2-9-1-8-3-14-3-17z" fill="#A4812A"/>
<path transform="translate(1390,622)" d="m0 0 5 2 13 21 9 13 10 13 9 10 7 7 3 7-9-2-12-2h-24l-31 6-14 2h-19l4-2 10-2 11-3 9-5h2v-7l-3-11v-9l2-12 6-9 4-4h2l2-4 2-7h2z" fill="#FBFAFA"/>
<path transform="translate(867,263)" d="m0 0h9l12 2 9 4 7 6 4 11 7 14-1 2-8-5-11-4-11-1-8 4-28 3-12 3-12 5-11 7-7 7-4 7-2-1 2-5 11-19 1-9 4-13-3-1v-2l-12 4-2-1 8-4 24-8 22-5z" fill="#FAF8F8"/>
<path transform="translate(151)" d="m0 0h20v2l5 2 7 7 4 9v13l-4 10-2 2v3l3 2 1 6-2 9-16 1-11 4-3 2-2 3-2-9-4-6 1-4h2l-1-5-8-9-3-5-1-4v-14l4-8 9-8zm26 63 4 1z" fill="#A5822B"/>
<path transform="translate(329,963)" d="m0 0h14l5 3v1h-27v7l6 27 4 21 1 7 4 27 3 14 2 11 1 12-1 4-5-1v-2l-6-1-4-7-6-8-6-12-3-9-2-11-2-20-5 12-8 13-9 10-13 12-5 9-2 6-1 7v18l3 14 6 16 9 17 12 16 6 10 4 11v9l-3 6-3-1 1-5v-9l-4-11-9-14-8-11-9-16-7-18-3-15v-18l3-12 7-11 8-8 8-6 9-12 6-13 4-12 3-15 1-8 1-29 11-4zm-19 44v5l3-2-1-3zm4 8-2 5v29l3 14 8 18 6 5-3-22-8-45-2-4zm-6 4 1 3z" fill="#8A6819"/>
<path transform="translate(1073,456)" d="m0 0h8l13 5 6 2v2h2l2 8 1 9 4 11 8 8 7 6 6 9 3 12 3 9 7 12 8 8v2h2l4 7 9 7 1 4-2 3h-13l-15-3-3-4-4-11-4-8-7-17-12-18-10-19-3-3v-2h-2l-5-7-7-14v-2l-4-2-2-8h-2v-5z" fill="#0026FB"/>
<path transform="translate(343,1100)" d="m0 0 5 2 12 11 4 5 4 19 5 28 2 16 4 21 5 30 4 19v4l5 1v2h-21l-2-7-8-46-4-20-4-25-9-47-2-9z" fill="#F2E0B1"/>
<path transform="translate(342,381)" d="m0 0h5l9 6 8 5 9 5 4 3v2l4 2 11 9 6 4 1 3 4 2 4 5 6 5 7 9 7 11 8 12 9 17 4 7 6 12 3 9 4 11 3 13 2 17 6 19 1 5v13l-4 4-13 5-9 4-1 2-12 3h-6l3-2 16-6 16-8 2-2v-7l-4-18-5-13-2-13h-2l-1-2-1-10-5-10-3-8-1-8-4-5-3-6-13-23-5-11-5-9-5-6-4-4-4-5-2-1v-2l-4-2-8-7-11-9-13-9-6-4-5-3-6 1-2 5-2-4v-10z" fill="#C0B5A9"/>
<path transform="translate(324,966)" d="m0 0h12l2 2 5 27 2 14 4 20 3 21 6 33 4 20 1 9-4-2-8-7v-2l-4-1-6-3-1-16-4-21-3-16-2-15-3-17-7-35-1-8 1-2z" fill="#DDBD6B"/>
<path transform="translate(222,328)" d="m0 0h2l3 8 4 23 4 25 6 34 9 52 4 24 4 20 5 30 4 21 7 42 5 27 4 24 7 37 4 23 3 17 4 21 4 25 5 31 2 7 2 12 3 19 3 16 8 45 3 17 4 24 2 11h-5v-7l-7-36-4-24-5-27-4-24-7-40-7-39-3-16-5-30-5-28-5-27-4-24-3-17-5-29-9-50-5-30-3-17-16-88-7-40-4-23-2-12z" fill="#D7B96C"/>
<path transform="translate(812,375)" d="m0 0 5 2 14 8 17 5 25 3 22 1 12 3 8 7v9l-5 6-8 4-8 2h-19l-12-3-10-6-16-12-11-6 3-1 11 2 2-1-5-5-13-8-11-8z" fill="#F8F7F7"/>
<path transform="translate(761,308)" d="m0 0h4l-2 12-7 14-4 5h-2l-1 3-5 4-12 5-6 3-8 2-8 3-13 3-6 2-8-2-9-1-4-3 1-2h2l1-2 9-3 12-7 12-5 14-9 17-10 12-8h3v-2z" fill="#958C8B"/>
<path transform="translate(593,342)" d="m0 0 14 1 5 3v1l-8-1-3-1 3 8 7 8 8 11 9 11 5 6 2 5 4 4 3 5v2h2l9 13 6 11v2h2l11 18 10 17 3 7 4 10 10 19 6 10 6 11 8 13 4 6 3 6 5 4 7 8 3 5 4 3 4 7v2l4 2 15 5 10-4 5-3 2 1-9 7-6 4-10 1-10-4-8-5-7-11-9-10-4-5-5-5-5-6-11-21-6-15-8-16-13-27-6-12-5-9v-2h-2l-14-24-11-16-5-7-3-5-9-12-8-10-6-9-3-3-7-8-2-2z" fill="#C0B5A9"/>
<path transform="translate(198,278)" d="m0 0 5 5 3 5v8l6 40 1 4 8 46 6 31 2 13 9 52 4 22 5 27 4 26 4 21 8 48 3 17 9 49 9 51 2 12 2 13 1 6 6 31 4 27 8 44 4 21 8 47 3 13-1 6h8v1h-11l1-2-2-11-4-25-4-20-3-18-7-40-3-20-2-8-6-36-4-21-8-47-16-88-4-26-3-17-9-49-2-15-2-10-8-44-4-21-5-30-7-39-6-35-4-20-5-30z" fill="#C0A76E"/>
<path transform="translate(1087,571)" d="m0 0 5 5 5 4 12 3v2l17 3 5 4 3 11-1 7-5 4 1 2-24 7-11 4h-3l-2-34-2-16z" fill="#ACA199"/>
<path transform="translate(211,232)" d="m0 0h2l5 24 7 44 10 55 13 77 8 45 11 61 14 79 11 61 13 73 12 66 9 53v6l-3-3-9-51-4-25-2-10-4-24-2-8-1-9-2-8-6-36-2-9-2-13-4-20-1-10-1-1-4-24-5-28-4-23-2-10-4-23-5-30-5-28-3-14-2-14-5-28-5-31-4-21-3-20-4-19-4-24-4-23-2-13-6-34z" fill="#926E20"/>
<path transform="translate(1038,404)" d="m0 0h9l15 5 13 8 10 9 7 9 4 10 3 9 3 6-1 2-16-7-27-9-13-3v-2l13-2v-5l-3-8-5-15-3-2v-2l-9-2z" fill="#F8F7F7"/>
<path transform="translate(811,278)" d="m0 0 6 1 2 2-5 17v5l-11 19-2 5-2 9v16l4 10 8 10 3 3v2l14 10 12 7 3 5-4 1-10-2-9 3-5 6-1 5h-1l1-10 2-9-1-4-5-5-12-21-5-12-1-2 1-17 2-10 1-8-1-7 2-10v-7l-3-2-7 1 1-3 11-5 6-1z" fill="#C8C2BE"/>
<path transform="translate(151)" d="m0 0h20v2l5 2 7 7 4 9v13l-2 3-2-2-2 2-14 2h-7l-8-4-4-3-4-8-2-6 2-8-5 4 2-4 7-6z" fill="#DEBE6C"/>
<path transform="translate(867,316)" d="m0 0h9l14 3 23 7 7-1 5-3h3l10 16 5 6-1 2-14-5-12-2-15-1-36-1-7-3-5-6 1-5 6-5z" fill="#F7F6F6"/>
<path transform="translate(991,852)" d="m0 0 2 1-3 3 6-4 2 1-3 5-7 4h-7l-2 3 3 2-2 1 4-1 4-2v-2l5-1 3 2 1 7-3 15-2 21-8 13-4-2-5 1-6-2 3-8 2-2 1-10-2-8-5 2 3-19-6 4-10 10h-2l1-8 1-3 3 1 6-2v-2l8-7 14-10z" fill="#0D184D"/>
<path transform="translate(331,1093)" d="m0 0 5 1v2l2 1v2l3 12 2 7 4 24 2 10 3 14 2 14 6 33 5 27 2 18h-8l-10-56-8-46-10-59z" fill="#906B18"/>
<path transform="translate(898,135)" d="m0 0 5 2 8 7 18 13 22 12 19 8 11 3-1 2-4 2-22 3-9-1-15-4-9-9-5-6-12-12-3-5-2-3 2-2z" fill="#043E16"/>
<path transform="translate(343,1100)" d="m0 0 5 2 5 5v6l4 16 4 22 3 17 1 9 2 9 1 5v8l2 1 2 13 5 30 2 10v5h-7l-2-7-8-46-4-20-4-25-9-47-2-9z" fill="#DDBD6C"/>
<path transform="translate(1374,488)" d="m0 0 2 2v12l-5 21-4 19-3 22-4-5-11-9-13-10-2-1 1-3 9 1h2v-11l4-9 11-13 8-6 3-2z" fill="#02531C"/>
<path transform="translate(1071,741)" d="m0 0 7 1 14 8 9 10 2 5v13l-5 9-7 8-8 4-3-1-3-8-1-14 1-4v-8l-2-11-3-5z" fill="#033C16"/>
<path transform="translate(309,974)" d="m0 0h1l1 21 1-7 2 2 3 22-1 4h-2l-1 4v29l3 14 7 16-1 2-6-10-5-14-2-11-2-20-5 12-8 13-9 10-13 12-5 9-2 6-1 7v18l3 14 6 16 9 17 12 16 6 10 4 11v9l-3 6-3-1 1-5v-9l-4-11-9-14-8-11-9-16-7-18-3-15v-18l3-12 7-11 8-8 8-6 9-12 6-13 4-12 3-15 1-8zm1 33v5l3-2-1-3zm-2 12 1 3z" fill="#2C4A3F"/>
<path transform="translate(1375,600)" d="m0 0 4 1-1 3h-2v2l-8 2-17 1-11 4-3 5-3 7-5 16-2 4-2 12v16l5 12-1 7h-2v3l-6 1 2-7-1-5-6-19v-10l4-20 5-14 2-7 4-6 9-6 7-1 8 1h16z" fill="#C0B5A9"/>
<path transform="translate(828,440)" d="m0 0h2l8 10 10 9 8 3 6 1 29 1v1l-18 1 19 3 6 4 1 3v6l-9 10h-2v2l-11 7v2l-16 10-17 13-2-2 9-7h2v-2l13-9 4-3h2l2-4 1-4-1-7-4-13-4-4-10-5-7-3-11-8-8-10z" fill="#C6C0BC"/>
<path transform="translate(165,69)" d="m0 0 4 1-7 2 3 11 7 37 4 24 7 39 10 57 3 26-1 2-4-5-2-13-4-25-1-1-3-18-2-11-3-21-2-11-1-10-2-7-2-14-7-34-3-9-1-5v-9l1-3z" fill="#A48129"/>
<path transform="translate(329,967)" d="m0 0h5l5 25 2 12 5 28 12 66 2 9 3 5-4-2-8-7v-2h-2v-11l-2-13-2-8-2-14-3-16-7-41-3-17-2-13z" fill="#F2E0B1"/>
<path transform="translate(345,990)" d="m0 0h2l4 22 15 85 5 25 15 30 3 9h-2l-11-21v8l11 65 6 34v9l-3-1-1-11-2-5-2-12-2-15-2-7-4-26-3-19-2-8-3-22-2-9-4-5 1-2h1l-4-28-2-6-1-11-2-6-2-13-3-17-6-36z" fill="#926F21"/>
<path transform="translate(152,88)" d="m0 0 3 3-1 3-1 2-2 38h1l3-14h1v9l-3 22v23l1 16 4 22 7 21 7 12 9 10 2 2-4-1-7-7-9-14-6-15-5-21-2-20-1-25 1-7-2 4-4 16-6 16-9 17-11 13-6 10-4 9-3 16-1 10-1 2h-3v-9l4-18 4-10 7-11 10-12 8-14 7-18 4-16 5-37 2-26z" fill="#3E415D"/>
<path transform="translate(1019,401)" d="m0 0h11l13 2-2 2 6 2v2l4 2 5 15 3 8v5l-5 2-13 1-7-2v-3l3-3v-6l-5-8-5-13v-2l-9-2z" fill="#C8C2BE"/>
<path transform="translate(1037,455)" d="m0 0 7 6 8 9 13 22 8 15 12 22 8 16 3 8v5l-3 3-6 3h-2l-7-25v-10l-6-12-12-20-10-19-7-11-6-10z" fill="#C5BFBB"/>
<path transform="translate(1282,869)" d="m0 0 9 3 7 8 3 5v9l-5 10-10 10-5 1-3-4v-27l1-10z" fill="#0E184C"/>
<path transform="translate(1087,571)" d="m0 0 5 5 5 4 12 3v2l17 3 5 4 3 11-1 7-5 4 1 2-24 7h-4v-2l9-4 6-5 1-4-3-9-3-6v-2l-6-2-9-6-4-1-1 14-2-3-2-16z" fill="#C6C0BC"/>
<path transform="translate(151)" d="m0 0h11l-1 2h-2v2l-8 6-1 6 3 9 8 5h10l8-5 2-9 1-2 3 1 2 5v13l-2 3-2-2-2 2-14 2h-7l-8-4-4-3-4-8-2-6 2-8-5 4 2-4 7-6z" fill="#C0A76E"/>
<path transform="translate(318,968)" d="m0 0 3 1 1 8 5 26 4 19 1 7 4 27 3 14 2 11 1 12-2 3-3-3-1-7-6-36-2-15-3-15-2-8-5-27-3-13z" fill="#A48129"/>
<path transform="translate(166,70)" d="m0 0 3 1-2 1 1 14 5 24 8 49 8 45 8 47 2 15v5l-3-3-2-10-2-18-10-57-6-34-4-21-3-18-5-27-2-9v-2z" fill="#C0A76E"/>
<path transform="translate(798,352)" d="m0 0 2 3 5 10 7 8 2 2v2l14 10 12 7 3 5-4 1-10-2-9 3-5 6-1 5h-1l1-10 2-9-1-4-5-5-12-21-2-4v-4h2z" fill="#C7C1BC"/>
<path transform="translate(336,966)" d="m0 0 11 1-2 2 2 21h-2l7 43 4 20 2 15 1 1 2 15 1 2 4 28h-3l-1-2-1-9-4-20-8-44-2-14-4-20-3-21-3-16z" fill="#A4812A"/>
<path transform="translate(334,966)" d="m0 0 4 2 5 27 2 14 4 20 3 21 6 33 4 20 1 8-4-4-2-9-10-54-7-40-2-12-4-21z" fill="#D5B76C"/>
<path transform="translate(361,1115)" d="m0 0 3 3 4 19 5 28 2 16 4 21 5 30 4 19v4l5 1v2h-8l-5-28-4-20-15-90z" fill="#D5B76D"/>
<path transform="translate(361,1114)" d="m0 0h2l6 9 2 16 2 13 3 14 5 30 2 13 2 12 2 9 2 12 1 2v11h-2l-3-12-7-41-4-21-2-16-5-28-4-19z" fill="#A48129"/>
<path transform="translate(369,1125)" d="m0 0 3 4 5 26 16 92v9l-3-1-1-11-2-5-2-12-2-15-2-7-4-26-3-19-2-8-3-22z" fill="#936F1F"/>
<path transform="translate(254,479)" d="m0 0h2l8 41 13 74 7 40v2l-3-1-4-20-4-25-4-19-3-19-4-21-3-20-5-28z" fill="#926E21"/>
<path transform="translate(1373,504)" d="m0 0 2 4-7 28-4 28-4-5-11-9v-2l7 2 3 6 2 1v-8l-2-5-1-9 2-9 8-14z" fill="#063E19"/>
<path transform="translate(1346,548)" d="m0 0 4 2 11 9 2 3 1-7h1l1 13 5 12 1 5h-2l-4-5-9-6-9-9-5-11 2-5z" fill="#948B8A"/>
<path transform="translate(343,1100)" d="m0 0 5 2-2 1 3 10 9 51 4 24 4 21 4 25 1 6 3 15v3h-2l-2-7-8-46-4-20-4-25-9-47-2-9z" fill="#BFA66D"/>
<path transform="translate(309,974)" d="m0 0h1l1 21 1-7 2 2 3 22-1 4h-2l-1 4v29l3 14 7 16-1 2-6-10-5-14-2-11-2-28 1-4v-17zm1 33v5l3-2-1-3zm-2 12 1 3z" fill="#998D83"/>
<path transform="translate(321,967)" d="m0 0h2l2 12 2 7 12 72 2 8 3 20v11h-3l-1-16-4-21-3-16-2-15-3-17-7-35-1-8z" fill="#BFA66D"/>
<path transform="translate(146,144)" d="m0 0h1v13l-7 21-8 17-7 10-10 12-7 15-3 16-1 10-1 2h-3v-9l4-18 4-10 7-11 10-12 8-14 7-18z" fill="#415356"/>
<path transform="translate(180,50)" d="m0 0h4l1 6-2 9-16 1-11 4-3 2-2 3-2-9-4-6 1-4h2l1-4h11v2h-2l2 9 1 1 18-1v-12z" fill="#AA8A3C"/>
<path transform="translate(307 1e3)" d="m0 0h2v9l-3 15-8 16-8 11-8 8-8 7-4 5-4 8-3 9-2-4 1-7 7-11 8-8 8-6 9-12 6-13 4-12z" fill="#344E46"/>
<path transform="translate(1426,691)" d="m0 0 11 1 13 4 16 10 14 11 12 12 12 16 7 13-1 2-4-5-4-7-5-8-7-6-7-8-15-15-18-11-10-4-13-3z" fill="#1830B1"/>
<path transform="translate(305,764)" d="m0 0h2l5 25 14 81v6l-3-3-9-51-4-25-2-10-3-17z" fill="#926F20"/>
<path transform="translate(179,47)" d="m0 0 4 3-3 1-1 12-2 1-16 1-3-4v-7l18-5z" fill="#D5B86E"/>
<path transform="translate(1134,525)" d="m0 0 5 1 13 20 10 15 10 14 1 4h2l-1 3-9-12-10-10-9-12-10-17-2-3z" fill="#EFECEB"/>
<path transform="translate(1042,461)" d="m0 0 4 2 8 10 12 21 7 13 12 22 2 4-1 3-8-12-6-11-8-14-8-15-7-13-7-8z" fill="#EAE7E6"/>
<path transform="translate(304,871)" d="m0 0h2l3 14 10 59 3 13-1 6h8v1h-11l1-2-2-11-4-25-4-20-5-30z" fill="#BEA66E"/>
<path transform="translate(237,373)" d="m0 0h1l13 76 5 30h-2l-3-10-2-14-5-28-5-31-3-16z" fill="#926F22"/>
<path transform="translate(362,1088)" d="m0 0h2l7 34 15 30 3 9h-2l-11-21-1 5h-1l-3-16-5-9-3-4 1-2h1l-3-19z" fill="#8E6D23"/>
<path transform="translate(150,149)" d="m0 0h1l1 18 2 23 4 22 7 21 7 12 9 10 2 2-4-1-7-7-9-14-6-15-5-21-2-20-1-25z" fill="#8E888C"/>
<path transform="translate(283,1166)" d="m0 0 4 1 10 13 6 13 1 4v9l-3 6-3-1 1-5v-9l-4-11-9-14-3-4z" fill="#385549"/>
<path transform="translate(167,65)" d="m0 0h17l1 2 5 2v1h-25l-10 5h-2l1 14-3-1-1-10 3-7 10-5z" fill="#072D2C"/>
<path transform="translate(329,963)" d="m0 0h14l5 3v1h-24l-11 4-1 33h-1l-1-9-1-27 11-4z" fill="#072D2C"/>
<path transform="translate(332,910)" d="m0 0h1l6 29 4 12 1 11 2 1v2l-7-2-2-15-4-18-1-11-1-6z" fill="#A48645"/>
<path transform="translate(214,268)" d="m0 0h1l5 31 4 20 1 13-1-4-3-1-7-40z" fill="#D3B56C"/>
<path transform="translate(1092,431)" d="m0 0 4 2 8 16 2 8h-2v2l-5-2-3-7-3-10-2-5z" fill="#075322"/>
<path transform="translate(1355,555)" d="m0 0 7 5 1 2 1-7h1l1 13 3 10-2 1-4-5-4-3v-3l-4-2-2-4 1-5z" fill="#8F837A"/>
<path transform="translate(754,307)" d="m0 0m-2 1 2 1-1 3-8 4-10 7-14 8-14 9-12 5-3-1 3-2 26-14 21-13z" fill="#A39890"/>
<path transform="translate(465,907)" d="m0 0h7l-2 2-25 10-16 7-3-1 5-4 16-8 12-5z" fill="#0B25B0"/>
<path transform="translate(361,1194)" d="m0 0h2l3 15 4 25 1 6 3 15v3h-2l-2-7-8-46-1-6z" fill="#C0A76E"/>
<path transform="translate(1019,401)" d="m0 0h11l-2 2 5 6 4 13 5 9v5l-2 2h-6l3-4v-6l-5-8-5-13v-2l-9-2z" fill="#BFB4A8"/>
<path transform="translate(1037,455)" d="m0 0 6 5 1 4 6 7 8 15 7 13 1 5h-2l-14-26-7-11-6-10z" fill="#AFA59E"/>
<path transform="translate(311,1014)" d="m0 0h1l1 35 3 14 7 16-1 2-6-10-5-14-1-6v-36z" fill="#6F6A77"/>
<path transform="translate(795,283)" d="m0 0 2 1 5 4-1 6-3 12 1 5v7l-3 9-2-2 2-6-1-14 2-8v-7l-3-2-7 1 1-3z" fill="#BDB3A9"/>
<path transform="translate(109,222)" d="m0 0h2l-1 5-4 13-2 18-1 2h-3v-9l4-18 4-10z" fill="#384755"/>
<path transform="translate(260,1089)" d="m0 0h2l2 2v30h-2v-2h-2l-1-7v-18z" fill="#647175"/>
<path transform="translate(211,232)" d="m0 0h2l5 24 4 26v3h-2l-3-14-4-25-2-9z" fill="#947122"/>
<path transform="translate(905,268)" d="m0 0 3 1 2 4 1 10 2 5v7h-2l-4-9-3-9v-8z" fill="#025A20"/>
<path transform="translate(1042,461)" d="m0 0 4 2 8 10 12 21-1 5-2-1-7-14-7-13-7-8z" fill="#C9C3C0"/>
<path transform="translate(1106,477)" d="m0 0 4 1 8 15 5 7v2l-4-1-6-7-7-13z" fill="#EDEBEA"/>
<path transform="translate(1292,881)" d="m0 0 5 1 3 5-1 7-2 4-4-1-2-15z" fill="#033E14"/>
<path transform="translate(181,70)" d="m0 0h4l2 10 4 25v9l-2-2-4-22-2-15z" fill="#967325"/>
<path transform="translate(1093,751)" d="m0 0 4 2 5 5 5 10v9l-5 10-7 8v-3l7-9 2-11-2-8-6-9z" fill="#9F9591"/>
<path transform="translate(372,1130)" d="m0 0 4 2 8 16 5 11v2h-2l-11-21-1 5h-1l-2-11z" fill="#989484"/>
<path transform="translate(197,149)" d="m0 0 2 2 3 17 4 22v8l-2-1-4-22-1-9-2-8z" fill="#967428"/>
<path transform="translate(146,56)" d="m0 0h7v10h6l1 2-7 4-2 3-2-9-4-6z" fill="#916D1F"/>
<path transform="translate(829,536)" d="m0 0v3l-17 17-2 3h-2v2l-6 3-5 5-3-1 9-8h2v-2l8-7 11-11h2v-2z" fill="#C3BBB5"/>
<path transform="translate(418,928)" d="m0 0 3 1-4 3-24 12-2-1 3-1 1-3 10-6 10-4z" fill="#112AB0"/>
<path transform="translate(312,1010)" d="m0 0h3l2 2-1 4h-2l-2 4-1-5-1 31h-1l-2-28 2-7zm-4 9 1 3z" fill="#B4ABA3"/>
<path transform="translate(305,764)" d="m0 0h2l5 25 1 9-3-1-2-10-3-17z" fill="#957224"/>
<path transform="translate(356,1054)" d="m0 0h2l6 32v2h-2l-3-8-1-11-2-6z" fill="#926E1F"/>
<path transform="translate(744,318)" d="m0 0 4 2-5 5-11 7-4 3-6 1 3-5 5-2h3l1-2 3-1 1-4z" fill="#8F8379"/>
<path transform="translate(157,214)" d="m0 0 2 2 7 19 6 10 9 10 2 2-4-1-7-7-9-14-6-15z" fill="#7E7B81"/>
<path transform="translate(307 1e3)" d="m0 0h2v9l-3 15-2 5-4-2 4-12z" fill="#323A5A"/>
<path transform="translate(180,50)" d="m0 0h4l1 6-2 9h-17v-1l13-1v-12z" fill="#A28134"/>
<path transform="translate(338,1064)" d="m0 0h2l1 2 3 20v11h-3l-1-16-2-11z" fill="#BFA56C"/>
<path transform="translate(299,732)" d="m0 0h2l5 24 1 8-3-1-2-8-1-9-2-8z" fill="#947022"/>
<path transform="translate(152,88)" d="m0 0 3 3-1 3-1 2-2 37h-1l-1-8-1-2 3-34z" fill="#9B918C"/>
<path transform="translate(261,1119)" d="m0 0 1 2 3-1 5 16 1 5-3 1-6-15z" fill="#4B6359"/>
<path transform="translate(174,51)" d="m0 0h2v9l-3 3-5-2-1-4 1-4z" fill="#F3E1B2"/>
<path transform="translate(220,285)" d="m0 0h2l6 32v7l-2-1-6-34z" fill="#916D1F"/>
<path transform="translate(145,46)" d="m0 0 9 1 8 3 2-1 5 1v2l-9 1-12-1-3-5z" fill="#946F1C"/>
<path transform="translate(866,470)" d="m0 0 5 1v2h2l6 18-1 6-3 2v-9l-5-15z" fill="#C0B5A9"/>
<path transform="translate(300,1033)" d="m0 0h3l-1 5-8 13-6 7v-3l2-4 8-14z" fill="#2B394E"/>
<path transform="translate(967,870)" d="m0 0 2 1-9 10-5 5h-2l1-8 1-3 3 1 6-2v-2z" fill="#353B6C"/>
<path transform="translate(1087,571)" d="m0 0 10 10-5 1-1 14-2-3-2-16z" fill="#BEB6B1"/>
<path transform="translate(254,479)" d="m0 0h2l6 31v2l-3-1-5-28z" fill="#8F6B1C"/>
<path transform="translate(311,798)" d="m0 0h2l4 19 1 9-3-1-4-20z" fill="#947020"/>
<path transform="translate(294,703)" d="m0 0h2l4 20 1 9-3-1-3-17z" fill="#926E20"/>
<path transform="translate(127,197)" d="m0 0 2 3-11 13-6 10-3-2 10-14z" fill="#4E5763"/>
<path transform="translate(277,608)" d="m0 0h2l4 20 1 8-3-1-4-20z" fill="#916E23"/>
<path transform="translate(202,278)" d="m0 0 3 3 5 8 4 9v3l-3-1-9-17-2-4z" fill="#947329"/>
<path transform="translate(325,879)" d="m0 0h2l5 25v9h-1l-3-14-3-16z" fill="#947020"/>
<path transform="translate(803,562)" d="m0 0v3l-16 16-3-2 4-6 5-4 5-2z" fill="#D3CECA"/>
<path transform="translate(331,936)" d="m0 0 2 4 4 23h-5v-7l-1-10z" fill="#CEB16D"/>
<path transform="translate(456,593)" d="m0 0m-2 1h2l-1 3-8 3-1 2-12 3h-6l3-2 16-6z" fill="#C0B6AC"/>
<path transform="translate(356,1089)" d="m0 0 3 1 4 17-1 4-4-6z" fill="#D2B56C"/>
<path transform="translate(866,506)" d="m0 0m-2 1 3 1-4 4-14 10-6 4v-3l8-6h2v-2z" fill="#BAB1AC"/>
<path transform="translate(1066,502)" d="m0 0 3 4 9 15 1 6h-2l-6-11-6-10z" fill="#BCB4AE"/>
<path transform="translate(798,297)" d="m0 0 1 3-1 6 1 5v7l-3 9-2-2 2-6-1-14 2-7z" fill="#C0B5A9"/>
<path transform="translate(1513,829)" d="m0 0 1 4-10 24-1-4 6-16z" fill="#172055"/>
<path transform="translate(179,65)" d="m0 0h5l1 2 5 2v1h-9l-11-1-1-2z" fill="#183A24"/>
<path transform="translate(1086,545)" d="m0 0 2 1v2h2l1 9-3 2-3-4v-9z" fill="#ABA098"/>
<path transform="translate(343,967)" d="m0 0 4 1-2 1 2 21-3-1-2-9z" fill="#A28138"/>
<path transform="translate(1037,455)" d="m0 0 6 5 1 4 6 7 2 5-3 1-12-20z" fill="#B7AFAA"/>
<path transform="translate(1224,665)" d="m0 0 2 1v2h2l1 5h2l2 8 2 6h3v2h-4l-7-15-3-6z" fill="#C5BEBB"/>
<path transform="translate(828,440)" d="m0 0h2l8 10 8 7-1 2-5-2-11-13z" fill="#BAB3AE"/>
<path transform="translate(1206,629)" d="m0 0 3 2 3 6 4 9 4 8v2h-2l-12-25z" fill="#C9C3C0"/>
<path transform="translate(228,322)" d="m0 0h1l4 24h-2l-2-4-2-18z" fill="#947229"/>
<path transform="translate(152,190)" d="m0 0h2l4 24-2 2-4-17z" fill="#8C8682"/>
<path transform="translate(206,204)" d="m0 0h2l2 8 1 6v9l-2-1-3-17z" fill="#926E21"/>
<path transform="translate(237,373)" d="m0 0h1l4 25h-2l-2-5-2-17z" fill="#927027"/>
<path transform="translate(341,1097)" d="m0 0 4 1 6 3 4 5 8 7-3 1-8-8-11-8z" fill="#304625"/>
<path transform="translate(251,453)" d="m0 0h1l4 26h-2l-3-10-1-13z" fill="#926F26"/>
<path transform="translate(981,861)" d="m0 0 7 1v3l-5 4-4-1 1-1-2-2z" fill="#011CAB"/>
<path transform="translate(1122,474)" d="m0 0m-9 1h9l4 2-13 3-1 3-3-6z" fill="#044929"/>
<path transform="translate(266,1077)" d="m0 0h2l-3 11-2 5-2-4 1-7 2-4z" fill="#44515E"/>
<path transform="translate(1349,548)" d="m0 0 7 2 3 6 5 1v7l-4-5-11-9z" fill="#083031"/>
<path transform="translate(630,347)" d="m0 0 13 2 9 2 2 2-18-2-5-1z" fill="#045328"/>
<path transform="translate(147,130)" d="m0 0 2 4 1 12-2 5-3-3 1-12z" fill="#ADA39B"/>
<path transform="translate(379,1140)" d="m0 0 3 3 7 16v2h-2l-7-14z" fill="#385049"/>
<path transform="translate(1042,461)" d="m0 0 4 2 8 10 2 4-1 3-7-10-6-7z" fill="#E7E4E3"/>
<path transform="translate(269,1141)" d="m0 0h3l5 10v2l-3 1-5-9z" fill="#3B564A"/>
<path transform="translate(965,891)" d="m0 0h2l1 6-5 8h-1v-8z" fill="#0E184C"/>
<path transform="translate(246,433)" d="m0 0h2l3 16v7l-2-1-3-17z" fill="#916C1C"/>
<path transform="translate(930,324)" d="m0 0 3 1 7 12v2l2 1h-3l-8-11z" fill="#064E27"/>
<path transform="translate(299,1194)" d="m0 0 2 2 1 8h2l-2 7h-4l1-5z" fill="#A2A6A2"/>
<path transform="translate(950,894)" d="m0 0 1 3-4 7-3 8h-2l3-11 3-6z" fill="#192152"/>
<path transform="translate(316,826)" d="m0 0h2l3 15v3h-2l-2-5z" fill="#957225"/>
<path transform="translate(353,1037)" d="m0 0h2l3 17-3-1-2-8z" fill="#927024"/>
<path transform="translate(336,963)" d="m0 0h7l5 3v1l-20-1v-1l7-1z" fill="#143132"/>
<path transform="translate(218,263)" d="m0 0h1l3 22h-2l-3-14v-6z" fill="#967429"/>
<path transform="translate(291,686)" d="m0 0h2l3 17-3-1-2-9z" fill="#937023"/>
<path transform="translate(155,120)" d="m0 0h1v9l-2 12-3-1 3-17z" fill="#A69B95"/>
<path transform="translate(304,1020)" d="m0 0 3 3-2 9-2 2-3-2z" fill="#5F6276"/>
<path transform="translate(305,764)" d="m0 0h2l3 16-3-1-2-9z" fill="#947125"/>
<path transform="translate(1217,486)" d="m0 0 8 1 10 3-2 2-6-1-10-3z" fill="#9E928A"/>
<path transform="translate(101,245)" d="m0 0 2 2 1 11-1 2h-3v-9z" fill="#A89F9A"/>
<path transform="translate(160,53)" d="m0 0 3 1-1 1v8l4 2h-5l-3-4v-7z" fill="#C0A76E"/>
<path transform="translate(314,1060)" d="m0 0 2 3 7 16-1 2-6-10-3-10z" fill="#666B78"/>
<path transform="translate(1279,693)" d="m0 0 17 2 2 1v2l-9-1-9-2z" fill="#BAB2AD"/>
<path transform="translate(1104,773)" d="m0 0 2 4-1 4-3 6-7 8v-3l7-9z" fill="#86827A"/>
<path transform="translate(1102,765)" d="m0 0 2 1 1 7-2 10-6 8-2-1 6-9 1-3z" fill="#0C1B55"/>
<path transform="translate(1192,481)" d="m0 0h10l9 2v2l3 1-8-1-14-3z" fill="#A1958D"/>
<path transform="translate(363,1114)" d="m0 0 4 4h3l4 11-1 2-5-8-5-7z" fill="#193F2E"/>
<path transform="translate(282,636)" d="m0 0h2l3 16h-2l-2-3z" fill="#936E1D"/>
<path transform="translate(1169,568)" d="m0 0 1 2 4 1v2h2v5l-3 1-5-8z" fill="#92867D"/>
<path transform="translate(181,70)" d="m0 0h4l2 10v5h-2l-3-13z" fill="#967429"/>
<path transform="translate(941,913)" d="m0 0h3l-1 12-3 2v-8z" fill="#1B2454"/>
<path transform="translate(1355,547)" d="m0 0 4 2 2 2 1 7-4-2-3-6z" fill="#048C30"/>
<path transform="translate(1126,504)" d="m0 0 5 5 6 8v2l-3-1-8-11z" fill="#A59B94"/>
<path transform="translate(146,144)" d="m0 0h1v13l-2 4-2-3z" fill="#5E6173"/>
<path transform="translate(323,859)" d="m0 0h1l2 11v6l-3-3-1-12z" fill="#957327"/>
<path transform="translate(243,417)" d="m0 0h2l3 16-3-1-2-10z" fill="#906D22"/>
<path transform="translate(586,338)" d="m0 0h6l12 4v2l-8-1-10-4z" fill="#D8CAAD"/>
<path transform="translate(211,232)" d="m0 0h2l2 8v8l-2-2-2-9z" fill="#926E20"/>
<path transform="translate(1117,603)" d="m0 0 3 6-3 6-6 4-2-1 7-6z" fill="#C0B5A9"/>
<path transform="translate(1087,570)" d="m0 0 5 2 6 7 2 1-1 2-6-4-6-7z" fill="#0D184F"/>
<path transform="translate(254,479)" d="m0 0h2l3 16-3-2-2-10z" fill="#906D21"/>
<path transform="translate(202,181)" d="m0 0h2l2 9v8l-2-1z" fill="#936F1F"/>
<path transform="translate(1331,911)" d="m0 0 2 2-12 7-2-1 3-3 5-3z" fill="#111B50"/>
<path transform="translate(1222,871)" d="m0 0 3 3-11 4h-2v-2z" fill="#122AAE"/>
<path transform="translate(143,158)" d="m0 0 2 3-3 12-2-3z" fill="#475361"/>
<path transform="translate(152,88)" d="m0 0 3 3-1 3-1 2-1 11h-1v-18z" fill="#636071"/>
<path transform="translate(152,76)" d="m0 0h1l1 13-3-1-1-10z" fill="#1F4234"/>
<path transform="translate(754,307)" d="m0 0m-2 1 2 1-1 3-12 6 2-4z" fill="#A69B93"/>
<path transform="translate(390,1245)" d="m0 0h2l1 2v9l-3-1z" fill="#97752A"/>
<path transform="translate(1087,571)" d="m0 0 5 5 1 2-3 2-2 3z" fill="#C0B9B7"/>
<path transform="translate(703,338)" d="m0 0 2 1-4 4-8 2-1-2z" fill="#A49992"/>
<path transform="translate(260,1089)" d="m0 0h2l2 2-1 5-3 1-1 3z" fill="#66697F"/>
<path transform="translate(1037,455)" d="m0 0 6 5 2 8-5-5-3-6z" fill="#B2A9A5"/>
<path transform="translate(157,214)" d="m0 0 2 2 3 9v3h-2l-3-8z" fill="#56596A"/>
<path transform="translate(133,187)" d="m0 0h2l-2 6-4 6-1-4z" fill="#1F3C3A"/>
<path transform="translate(439,600)" d="m0 0 3 1v2l-8 2h-6l3-2z" fill="#B9B0AA"/>
<path transform="translate(109,222)" d="m0 0h2l-1 5-3 6h-1v-6z" fill="#243A44"/>
<path transform="translate(115,212)" d="m0 0h2l-1 4-4 7-3-2z" fill="#415558"/>
<path transform="translate(152,190)" d="m0 0h2l1 11-2 2-1-4z" fill="#C5B9A6"/>
<path transform="translate(176,52)" d="m0 0 2 2v9l-5 1 2-4z" fill="#DCBD6C"/>
<path transform="translate(301,1191)" d="m0 0 2 2 1 4v7h-2l-1-10z" fill="#65776F"/>
<path transform="translate(1105,765)" d="m0 0 2 3v9h-2l-1-10z" fill="#9D928D"/>
<path transform="translate(1066,502)" d="m0 0 3 4 2 3v5l-4-5-2-5z" fill="#B7AEA8"/>
<path transform="translate(191,119)" d="m0 0h2l1 3v10l-2-2z" fill="#916D1D"/>
<path transform="translate(188,101)" d="m0 0h2l1 4v9l-2-2z" fill="#926E1D"/>
</svg>
